# xmcd
#
# Track frame offsets: 
#        150
#        15940
#        31962
#        49880
#        65132
#        83690
#        105417
#        118912
#        136472
#        153567
#
# Disc length: 2215 seconds
#
# Revision: 3
# Processed by: cddbd v1.5.1PL0 Copyright (c) Steve Scherf et al.
# Submitted via: ExactAudioCopy v0.95a4
#
DISCID=7f08a50a
DTITLE=Kostars - Klassics With A "K"
DYEAR=1995
DGENRE=Indie
TTITLE0=Never So Lonely
TTITLE1=Jacqueline
TTITLE2=Red Umbrella
TTITLE3=Jolene On The Freeway
TTITLE4=One Sunny Day
TTITLE5=Hey Cowboy
TTITLE6=Reverend
TTITLE7=Mama Never Said
TTITLE8=Don't Know Why
TTITLE9=French Kiss
EXTD=
EXTT0=
EXTT1=
EXTT2=
EXTT3=
EXTT4=
EXTT5=
EXTT6=
EXTT7=
EXTT8=
EXTT9=
PLAYORDER=
